<?xml version="1.0" encoding="UTF-8"?>
<svg id="Layer_2" data-name="Layer 2" xmlns="http://www.w3.org/2000/svg" viewBox="0 0 512.16 126.19">
  <g id="Layer_1-2" data-name="Layer 1">
    <g>
      <g>
        <path d="M94.64,63.1h-15.77v-23.66h-15.77v23.66h-15.77V0h15.77v23.66h15.77V0h15.77v63.1Z"/>
        <path d="M189.29,15.77h-31.55v7.89h31.55v15.77h-31.55v7.89h31.55v15.77h-47.32V0h47.32v15.77Z"/>
        <path d="M283.93,63.1h-15.77v-23.66l-15.77-15.77v39.43h-15.77V0h15.77l15.77,15.77V0h15.77v63.1Z"/>
        <path d="M47.32,82.81l-15.77,11.83h15.77v31.55h-15.77v-15.77h-15.77v15.77H0v-63.1h15.77v23.66l15.77-11.83v-11.83h15.77v19.72Z"/>
        <path d="M94.64,63.1h47.32v63.1h-15.77v-23.66h-15.77v23.66h-15.77v-63.1ZM126.19,86.76v-7.89h-15.77v7.89h15.77Z"/>
        <path d="M236.61,82.81l-15.77,11.83h15.77v31.55h-15.77v-15.77h-15.77v15.77h-15.77v-63.1h15.77v23.66l15.77-11.83v-11.83h15.77v19.72Z"/>
        <path d="M331.26,126.19h-47.32v-63.1h15.77v47.32h15.77v-47.32h15.77v63.1Z"/>
      </g>
      <g>
        <path d="M372.42,91.04h-5.21v-28.17h5.21v11.59h12.5v-11.59h5.25v28.17h-5.25v-11.98h-12.5v11.98Z"/>
        <path d="M403.19,91.47c-2.11,0-3.92-.48-5.42-1.43-1.5-.96-2.66-2.26-3.47-3.93-.81-1.66-1.22-3.55-1.22-5.66s.42-3.99,1.26-5.62c.84-1.63,2.01-2.93,3.52-3.88,1.5-.95,3.24-1.43,5.21-1.43s3.62.43,5.06,1.28c1.43.85,2.55,2.05,3.34,3.58.79,1.53,1.19,3.33,1.19,5.38,0,.43,0,.8-.02,1.08-.02.29-.04.62-.07,1h-14.5c.15,1.45.58,2.65,1.3,3.6.9,1.22,2.18,1.82,3.86,1.82.98,0,1.83-.21,2.54-.63s1.22-1,1.54-1.76h4.95c-.46,1.88-1.45,3.45-2.97,4.71-1.52,1.26-3.55,1.89-6.1,1.89ZM398.16,78.32h9.59c-.12-1.27-.53-2.34-1.26-3.21-.84-.95-1.98-1.43-3.43-1.43-1.62,0-2.86.61-3.73,1.82-.55.78-.94,1.72-1.17,2.82Z"/>
        <path d="M419.85,91.04h-4.95v-21.09h4.82v2.39c.12-.2.25-.39.39-.56,1.24-1.5,3.01-2.26,5.3-2.26s4,.7,5.32,2.1c1.32,1.4,1.98,3.36,1.98,5.88v13.54h-4.95v-13.11c0-1.19-.32-2.15-.96-2.91-.64-.75-1.58-1.13-2.82-1.13s-2.28.38-3.02,1.15c-.74.77-1.11,1.73-1.11,2.89v13.11Z"/>
        <path d="M440.86,62.09v16.66l7.16-8.81h5.6l-7.03,8.42,8.2,12.67h-5.6l-5.68-8.9-2.65,3.12v5.77h-4.95v-28.95h4.95Z"/>
        <path d="M472.37,91.04h-4.56v-2.69c-.72.98-1.59,1.72-2.6,2.21-1.19.61-2.49.91-3.91.91-2.11,0-3.8-.55-5.08-1.65-1.27-1.1-1.91-2.57-1.91-4.43s.63-3.48,1.91-4.71,3.15-1.85,5.64-1.85h5.77v-1.3c0-1.19-.35-2.13-1.04-2.82s-1.68-1.04-2.95-1.04c-1.07,0-1.93.22-2.56.67-.64.45-1.03,1.09-1.17,1.93h-4.86c.32-2.2,1.28-3.88,2.89-5.03,1.61-1.16,3.54-1.74,5.79-1.74,2.57,0,4.66.72,6.25,2.15s2.39,3.39,2.39,5.88v13.5ZM467.64,82.84v-.61h-5.42c-.98,0-1.72.26-2.21.78-.49.52-.74,1.17-.74,1.95,0,.84.27,1.48.8,1.91.53.43,1.29.65,2.28.65,1.56,0,2.84-.45,3.82-1.35.98-.9,1.47-2.01,1.47-3.34Z"/>
        <path d="M480.53,62.09v16.66l7.16-8.81h5.6l-7.03,8.42,8.2,12.67h-5.6l-5.68-8.9-2.65,3.12v5.77h-4.95v-28.95h4.95Z"/>
        <path d="M507.22,69.95h4.95v21.09h-4.82v-2.26c-.12.14-.22.29-.31.43-1.21,1.5-2.95,2.26-5.21,2.26-2.11,0-3.81-.69-5.1-2.08-1.29-1.39-1.93-3.34-1.93-5.86v-13.58h4.95v13.15c0,1.16.3,2.11.89,2.87.59.75,1.48,1.13,2.67,1.13s2.17-.38,2.87-1.15c.69-.77,1.04-1.71,1.04-2.84v-13.15Z"/>
        <path d="M384.18,116.91h5.68c-.41,1.91-1.16,3.56-2.26,4.95-1.1,1.39-2.45,2.46-4.06,3.21-1.6.75-3.39,1.13-5.36,1.13-2.49,0-4.71-.61-6.66-1.82-1.95-1.21-3.48-2.91-4.58-5.1-1.1-2.18-1.65-4.72-1.65-7.62s.55-5.39,1.65-7.57,2.63-3.88,4.58-5.1c1.95-1.22,4.17-1.82,6.66-1.82,1.97,0,3.75.38,5.36,1.15,1.61.77,2.95,1.86,4.04,3.28,1.08,1.42,1.83,3.1,2.23,5.03h-5.64c-.41-1.53-1.14-2.7-2.21-3.52-1.07-.81-2.33-1.21-3.78-1.21s-2.72.39-3.82,1.17-1.96,1.9-2.58,3.36c-.62,1.46-.93,3.21-.93,5.23s.31,3.82.93,5.3c.62,1.47,1.48,2.6,2.58,3.39s2.37,1.17,3.82,1.17,2.7-.41,3.78-1.22c1.07-.81,1.81-1.94,2.21-3.39Z"/>
        <path d="M401.06,126.19c-2.11,0-3.92-.48-5.42-1.43-1.5-.96-2.66-2.26-3.47-3.93-.81-1.66-1.22-3.55-1.22-5.66s.42-3.99,1.26-5.62c.84-1.63,2.01-2.93,3.52-3.88,1.5-.95,3.24-1.43,5.21-1.43s3.62.43,5.06,1.28c1.43.85,2.55,2.05,3.34,3.58.79,1.53,1.19,3.33,1.19,5.38,0,.43,0,.8-.02,1.08-.02.29-.04.62-.07,1h-14.5c.15,1.45.58,2.65,1.3,3.6.9,1.22,2.18,1.82,3.86,1.82.98,0,1.83-.21,2.54-.63s1.22-1,1.54-1.76h4.95c-.46,1.88-1.45,3.45-2.97,4.71-1.52,1.26-3.55,1.89-6.1,1.89ZM396.03,113.04h9.59c-.12-1.27-.53-2.34-1.26-3.21-.84-.95-1.98-1.43-3.43-1.43-1.62,0-2.86.61-3.73,1.82-.55.78-.94,1.72-1.17,2.82Z"/>
        <path d="M417.73,125.76h-4.95v-21.09h4.82v2.39c.12-.2.25-.39.39-.56,1.24-1.5,3.01-2.26,5.3-2.26s4,.7,5.32,2.1c1.32,1.4,1.98,3.36,1.98,5.88v13.54h-4.95v-13.11c0-1.19-.32-2.15-.96-2.91-.64-.75-1.58-1.13-2.82-1.13s-2.28.38-3.02,1.15c-.74.77-1.11,1.73-1.11,2.89v13.11Z"/>
        <path d="M444.9,105.01v3.99h-5.08v9.42c0,1.07.26,1.83.78,2.28.52.45,1.4.67,2.65.67h1.65v4.38h-2.65c-2.4,0-4.23-.57-5.49-1.71-1.26-1.14-1.89-2.91-1.89-5.32v-9.72h-2.99v-3.99h3.08v-5.34h4.86v5.34h5.08Z"/>
        <path d="M455.66,126.19c-2.11,0-3.92-.48-5.42-1.43-1.5-.96-2.66-2.26-3.47-3.93-.81-1.66-1.22-3.55-1.22-5.66s.42-3.99,1.26-5.62c.84-1.63,2.01-2.93,3.52-3.88,1.5-.95,3.24-1.43,5.21-1.43s3.62.43,5.06,1.28c1.43.85,2.55,2.05,3.34,3.58.79,1.53,1.19,3.33,1.19,5.38,0,.43,0,.8-.02,1.08-.02.29-.04.62-.07,1h-14.5c.15,1.45.58,2.65,1.3,3.6.9,1.22,2.18,1.82,3.86,1.82.98,0,1.83-.21,2.54-.63.71-.42,1.22-1,1.54-1.76h4.95c-.46,1.88-1.45,3.45-2.97,4.71-1.52,1.26-3.55,1.89-6.1,1.89ZM450.63,113.04h9.59c-.12-1.27-.53-2.34-1.26-3.21-.84-.95-1.98-1.43-3.43-1.43-1.62,0-2.86.61-3.73,1.82-.55.78-.94,1.72-1.17,2.82Z"/>
        <path d="M472.32,125.76h-4.95v-21.09h4.82v2.95c.49-.84,1.11-1.55,1.87-2.13,1.07-.84,2.39-1.26,3.95-1.26h.48c.17,0,.33.01.48.04v4.77h-1.78c-1.5,0-2.69.43-3.56,1.3-.87.87-1.3,1.94-1.3,3.21v12.2Z"/>
      </g>
    </g>
  </g>
</svg>