<?xml version="1.0" encoding="UTF-8"?><svg id="Layer_1" xmlns="http://www.w3.org/2000/svg" viewBox="0 0 1000 152.45"><defs><style>.cls-1{fill:#fff;}</style></defs><path class="cls-1" d="M175.8,40.18h11.57c-.83,3.89-2.36,7.24-4.59,10.07-2.24,2.83-4.99,5.01-8.26,6.54-3.27,1.53-6.9,2.3-10.91,2.3-5.06,0-9.58-1.24-13.56-3.71-3.97-2.47-7.08-5.93-9.32-10.38-2.24-4.44-3.36-9.61-3.36-15.5s1.12-10.96,3.36-15.41c2.24-4.44,5.34-7.9,9.32-10.38,3.97-2.47,8.49-3.71,13.56-3.71,4,0,7.64.78,10.91,2.34,3.27,1.56,6,3.78,8.21,6.67,2.21,2.88,3.72,6.3,4.55,10.24h-11.48c-.83-3.12-2.33-5.5-4.5-7.15-2.18-1.65-4.74-2.47-7.68-2.47s-5.53.79-7.77,2.38c-2.24,1.59-3.99,3.87-5.25,6.84-1.27,2.97-1.9,6.52-1.9,10.64s.63,7.77,1.9,10.77c1.27,3,3.02,5.3,5.25,6.89s4.83,2.38,7.77,2.38,5.5-.82,7.68-2.47c2.18-1.65,3.68-3.94,4.5-6.89Z"/><path class="cls-1" d="M200.87,58.2h-10.07V.88h10.07v18.81c.18-.23.35-.47.53-.71,2.53-3.06,6.12-4.59,10.77-4.59s8.14,1.43,10.82,4.28c2.68,2.86,4.02,6.84,4.02,11.97v27.55h-10.07v-26.67c0-2.41-.65-4.38-1.94-5.92-1.3-1.53-3.21-2.3-5.74-2.3s-4.64.78-6.14,2.34c-1.5,1.56-2.25,3.52-2.25,5.87v26.67Z"/><path class="cls-1" d="M242.38.88v9.98h-10.24V.88h10.24ZM242.29,16.67v41.53h-10.07V16.67h10.07Z"/><path class="cls-1" d="M248.21,58.2V.88h10.07v19.43c.88-1.18,1.88-2.21,3-3.09,2.47-1.88,5.58-2.83,9.32-2.83s6.98.96,9.71,2.87c2.74,1.91,4.87,4.56,6.4,7.95,1.53,3.39,2.3,7.24,2.3,11.57s-.77,8.17-2.3,11.52c-1.53,3.36-3.66,5.99-6.4,7.9-2.74,1.91-5.98,2.87-9.71,2.87s-6.84-.97-9.32-2.91c-1.24-.94-2.33-2.06-3.27-3.36v5.39h-9.8ZM258.27,36.91c0,3.89.91,7.06,2.74,9.54,1.82,2.47,4.36,3.71,7.6,3.71s5.67-1.24,7.46-3.71c1.79-2.47,2.69-5.68,2.69-9.63,0-2.65-.4-4.99-1.19-7.02-.8-2.03-1.96-3.62-3.49-4.77-1.53-1.15-3.36-1.72-5.47-1.72s-3.96.56-5.52,1.68c-1.56,1.12-2.75,2.69-3.58,4.72-.83,2.03-1.24,4.37-1.24,7.02v.18Z"/><path class="cls-1" d="M328.18,58.2h-9.27v-5.48c-1.47,2-3.24,3.5-5.3,4.5-2.41,1.24-5.06,1.85-7.95,1.85-4.3,0-7.74-1.12-10.33-3.36-2.59-2.24-3.89-5.24-3.89-9.01s1.29-7.08,3.89-9.58c2.59-2.5,6.42-3.75,11.48-3.75h11.75v-2.65c0-2.41-.71-4.33-2.12-5.74-1.41-1.41-3.42-2.12-6-2.12-2.18,0-3.92.46-5.21,1.37-1.3.91-2.09,2.22-2.38,3.93h-9.89c.65-4.47,2.61-7.89,5.87-10.24,3.27-2.35,7.2-3.53,11.79-3.53,5.24,0,9.48,1.46,12.72,4.37,3.24,2.91,4.86,6.9,4.86,11.97v27.46ZM318.55,41.51v-1.24h-11.04c-2,0-3.5.53-4.5,1.59-1,1.06-1.5,2.38-1.5,3.97,0,1.71.54,3,1.63,3.89,1.09.88,2.63,1.32,4.64,1.32,3.18,0,5.77-.91,7.77-2.74,2-1.82,3-4.09,3-6.8Z"/><path class="cls-1" d="M362.77,58.2h-10.69V10.24h-16.6V.88h44.07v9.36h-16.78v47.95Z"/><path class="cls-1" d="M389.15,59.08c-4.3,0-7.98-.97-11.04-2.91-3.06-1.94-5.42-4.61-7.06-7.99-1.65-3.38-2.47-7.23-2.47-11.52s.85-8.11,2.56-11.44c1.71-3.33,4.09-5.96,7.15-7.9,3.06-1.94,6.59-2.91,10.6-2.91s7.37.87,10.29,2.6c2.91,1.74,5.18,4.17,6.8,7.29,1.62,3.12,2.43,6.77,2.43,10.95,0,.88-.02,1.62-.04,2.21-.03.59-.07,1.27-.13,2.03h-29.5c.29,2.94,1.18,5.39,2.65,7.33,1.82,2.47,4.44,3.71,7.86,3.71,2,0,3.72-.43,5.17-1.28,1.44-.85,2.49-2.05,3.14-3.58h10.07c-.94,3.83-2.96,7.02-6.05,9.58-3.09,2.56-7.23,3.84-12.41,3.84ZM378.9,32.32h19.52c-.24-2.59-1.09-4.77-2.56-6.53-1.71-1.94-4.03-2.91-6.98-2.91-3.3,0-5.83,1.24-7.59,3.71-1.12,1.59-1.91,3.5-2.38,5.74Z"/><path class="cls-1" d="M449.63,30.03h-10.42c-.47-2.12-1.36-3.77-2.65-4.95-1.3-1.18-2.94-1.77-4.95-1.77s-3.58.55-4.9,1.63c-1.32,1.09-2.34,2.62-3.05,4.59-.71,1.97-1.06,4.34-1.06,7.11s.35,5.17,1.06,7.2c.71,2.03,1.72,3.59,3.05,4.68,1.33,1.09,2.96,1.63,4.9,1.63s3.65-.59,4.95-1.77c1.29-1.18,2.18-2.8,2.65-4.86h10.42c-.65,4.83-2.61,8.63-5.87,11.39-3.27,2.77-7.23,4.15-11.88,4.15-3.89,0-7.29-.96-10.2-2.87-2.91-1.91-5.2-4.55-6.84-7.9s-2.47-7.24-2.47-11.66.82-8.29,2.47-11.61c1.65-3.33,3.93-5.93,6.84-7.82,2.91-1.88,6.31-2.83,10.2-2.83,4.65,0,8.59,1.38,11.83,4.15,3.24,2.77,5.21,6.59,5.92,11.48Z"/><path class="cls-1" d="M463.14,58.2h-10.07V.88h10.07v18.81c.18-.23.35-.47.53-.71,2.53-3.06,6.12-4.59,10.77-4.59s8.14,1.43,10.82,4.28c2.68,2.86,4.02,6.84,4.02,11.97v27.55h-10.07v-26.67c0-2.41-.65-4.38-1.94-5.92-1.3-1.53-3.21-2.3-5.74-2.3s-4.64.78-6.14,2.34c-1.5,1.56-2.25,3.52-2.25,5.87v26.67Z"/><path class="cls-1" d="M162.04,131.61c4.3,0,7.61-1.02,9.94-3.05,2.32-2.03,3.49-4.93,3.49-8.7,0-3.3-.94-5.95-2.83-7.95-1.88-2-5-3.38-9.36-4.15l-3.8-.71c-5.48-1-9.52-2.81-12.14-5.43-2.62-2.62-3.93-6.05-3.93-10.29,0-4.53,1.52-8.15,4.55-10.86,3.03-2.71,7.05-4.06,12.05-4.06s8.99,1.29,12.14,3.89c3.15,2.59,5.22,6.39,6.23,11.39h-4.5c-.88-3.89-2.5-6.76-4.86-8.61-2.36-1.85-5.36-2.78-9.01-2.78s-6.86.96-9.1,2.87c-2.24,1.91-3.36,4.61-3.36,8.08,0,3.24,1.05,5.78,3.14,7.64,2.09,1.85,5.37,3.19,9.85,4.02l3.8.71c5.36,1,9.24,2.89,11.66,5.65,2.41,2.77,3.62,6.24,3.62,10.42,0,4.89-1.58,8.74-4.72,11.57-3.15,2.83-7.43,4.24-12.85,4.24s-9.96-1.47-13.47-4.42c-3.5-2.94-5.67-7.06-6.49-12.36h4.5c.47,3.95,2.04,7.08,4.72,9.41,2.68,2.33,6.25,3.49,10.73,3.49Z"/><path class="cls-1" d="M218.2,106.53h-4.68c-.65-2.77-1.9-4.92-3.75-6.45-1.85-1.53-4.19-2.3-7.02-2.3s-5.31.74-7.29,2.21c-1.97,1.47-3.46,3.49-4.46,6.05-1,2.56-1.5,5.46-1.5,8.7s.5,6.05,1.5,8.61c1,2.56,2.49,4.59,4.46,6.09,1.97,1.5,4.4,2.25,7.29,2.25s5.17-.76,7.02-2.3c1.86-1.53,3.1-3.65,3.75-6.36h4.68c-.94,3.77-2.8,6.79-5.56,9.05-2.77,2.27-6.09,3.4-9.98,3.4-3.59,0-6.71-.93-9.36-2.78s-4.71-4.36-6.18-7.51c-1.47-3.15-2.21-6.64-2.21-10.46s.74-7.4,2.21-10.55c1.47-3.15,3.53-5.64,6.18-7.46,2.65-1.82,5.77-2.74,9.36-2.74,3.89,0,7.21,1.13,9.98,3.4,2.77,2.27,4.62,5.31,5.56,9.14Z"/><path class="cls-1" d="M228.8,134.61h-4.42v-58.9h4.42v24.2c.41-.53.85-1.03,1.32-1.5,2.83-2.94,6.54-4.42,11.13-4.42s8.1,1.41,10.69,4.24c2.59,2.83,3.89,6.95,3.89,12.36v24.02h-4.42v-24.2c0-3.89-.93-6.96-2.78-9.23-1.85-2.26-4.52-3.4-7.99-3.4-3.77,0-6.68,1.19-8.74,3.58-2.06,2.38-3.09,5.4-3.09,9.05v24.2Z"/><path class="cls-1" d="M262.36,114.74c0-3.89.79-7.4,2.38-10.55,1.59-3.15,3.8-5.64,6.62-7.46,2.83-1.82,6.06-2.74,9.71-2.74s6.79.91,9.58,2.74c2.8,1.83,4.99,4.31,6.58,7.46,1.59,3.15,2.38,6.67,2.38,10.55s-.8,7.32-2.38,10.46c-1.59,3.15-3.78,5.65-6.58,7.51-2.8,1.85-6.02,2.78-9.67,2.78s-6.8-.93-9.63-2.78c-2.83-1.85-5.03-4.36-6.62-7.51-1.59-3.15-2.38-6.64-2.38-10.46ZM266.95,114.74c0,3.24.54,6.14,1.63,8.7,1.09,2.56,2.69,4.58,4.81,6.05,2.12,1.47,4.65,2.21,7.6,2.21s5.55-.74,7.64-2.21c2.09-1.47,3.68-3.49,4.77-6.05,1.09-2.56,1.63-5.46,1.63-8.7s-.54-6.14-1.63-8.7c-1.09-2.56-2.68-4.58-4.77-6.05-2.09-1.47-4.64-2.21-7.64-2.21s-5.48.74-7.6,2.21c-2.12,1.47-3.72,3.49-4.81,6.05-1.09,2.56-1.63,5.46-1.63,8.7Z"/><path class="cls-1" d="M304.04,114.74c0-3.89.79-7.4,2.38-10.55,1.59-3.15,3.8-5.64,6.62-7.46,2.83-1.82,6.06-2.74,9.71-2.74s6.79.91,9.58,2.74c2.8,1.83,4.99,4.31,6.58,7.46,1.59,3.15,2.38,6.67,2.38,10.55s-.8,7.32-2.38,10.46c-1.59,3.15-3.78,5.65-6.58,7.51s-6.02,2.78-9.67,2.78-6.8-.93-9.63-2.78c-2.83-1.85-5.03-4.36-6.62-7.51-1.59-3.15-2.38-6.64-2.38-10.46ZM308.63,114.74c0,3.24.54,6.14,1.63,8.7,1.09,2.56,2.69,4.58,4.81,6.05,2.12,1.47,4.65,2.21,7.6,2.21s5.55-.74,7.64-2.21c2.09-1.47,3.68-3.49,4.77-6.05,1.09-2.56,1.63-5.46,1.63-8.7s-.54-6.14-1.63-8.7c-1.09-2.56-2.68-4.58-4.77-6.05-2.09-1.47-4.64-2.21-7.64-2.21s-5.48.74-7.6,2.21c-2.12,1.47-3.72,3.49-4.81,6.05-1.09,2.56-1.63,5.46-1.63,8.7Z"/><path class="cls-1" d="M352.61,134.61h-4.42v-58.9h4.42v58.9Z"/><path class="cls-1" d="M373.8,114.74c0-3.89.79-7.4,2.38-10.55,1.59-3.15,3.8-5.64,6.62-7.46,2.83-1.82,6.06-2.74,9.71-2.74s6.79.91,9.58,2.74c2.8,1.83,4.99,4.31,6.58,7.46,1.59,3.15,2.38,6.67,2.38,10.55s-.8,7.32-2.38,10.46c-1.59,3.15-3.78,5.65-6.58,7.51s-6.02,2.78-9.67,2.78-6.8-.93-9.63-2.78c-2.83-1.85-5.03-4.36-6.62-7.51-1.59-3.15-2.38-6.64-2.38-10.46ZM378.39,114.74c0,3.24.54,6.14,1.63,8.7,1.09,2.56,2.69,4.58,4.81,6.05,2.12,1.47,4.65,2.21,7.6,2.21s5.55-.74,7.64-2.21c2.09-1.47,3.68-3.49,4.77-6.05,1.09-2.56,1.63-5.46,1.63-8.7s-.54-6.14-1.63-8.7c-1.09-2.56-2.68-4.58-4.77-6.05-2.09-1.47-4.64-2.21-7.64-2.21s-5.48.74-7.6,2.21c-2.12,1.47-3.72,3.49-4.81,6.05-1.09,2.56-1.63,5.46-1.63,8.7Z"/><path class="cls-1" d="M433.94,94.87v3.8h-10.33v35.94h-4.42v-35.94h-6.09v-3.8h6.09v-7.51c0-3.94.93-6.87,2.78-8.79,1.85-1.91,4.49-2.87,7.9-2.87h4.06v3.97h-3.36c-2.53,0-4.33.57-5.39,1.72-1.06,1.15-1.59,3.16-1.59,6.05v7.42h10.33Z"/><path class="cls-1" d="M471.91,77.3c4.83,0,9.17,1.15,13.03,3.44,3.86,2.3,6.93,5.58,9.23,9.85,2.3,4.27,3.44,9.39,3.44,15.37s-1.15,11.1-3.44,15.37c-2.3,4.27-5.37,7.55-9.23,9.85-3.86,2.3-8.2,3.44-13.03,3.44h-17.75v-57.31h17.75ZM458.58,130.73h13.33c4.06,0,7.68-.94,10.86-2.83,3.18-1.88,5.68-4.67,7.51-8.35,1.82-3.68,2.74-8.23,2.74-13.64s-.91-9.88-2.74-13.56c-1.82-3.68-4.33-6.46-7.51-8.35-3.18-1.88-6.8-2.83-10.86-2.83h-13.33v49.54Z"/><path class="cls-1" d="M521.54,135.5c-3.71,0-6.96-.93-9.76-2.78-2.8-1.85-4.96-4.36-6.49-7.51-1.53-3.15-2.3-6.67-2.3-10.55s.76-7.39,2.3-10.51c1.53-3.12,3.63-5.59,6.31-7.42,2.68-1.82,5.75-2.74,9.23-2.74s6.31.81,8.88,2.43c2.56,1.62,4.55,3.83,5.96,6.62,1.41,2.8,2.12,5.99,2.12,9.58,0,.77-.02,1.34-.04,1.72-.03.38-.08.81-.13,1.28h-30.29c.18,4.59,1.44,8.36,3.8,11.3,2.53,3.18,6.06,4.77,10.6,4.77,2.77,0,5.09-.6,6.98-1.81,1.88-1.21,3.24-2.9,4.06-5.08h4.33c-.77,3-2.56,5.53-5.39,7.6-2.83,2.06-6.21,3.09-10.15,3.09ZM507.5,111.83h26.05v-.18c0-4.18-1.19-7.54-3.58-10.07-2.38-2.53-5.43-3.8-9.14-3.8-4.12,0-7.39,1.53-9.8,4.59-2,2.53-3.18,5.68-3.53,9.45Z"/><path class="cls-1" d="M558.19,131.7c2.94,0,5.27-.6,6.98-1.81,1.71-1.21,2.56-3.08,2.56-5.61,0-2.06-.72-3.77-2.16-5.12-1.44-1.35-3.99-2.24-7.64-2.65l-3.27-.35c-2.59-.29-4.8-.93-6.62-1.9-1.83-.97-3.2-2.22-4.11-3.75-.91-1.53-1.37-3.3-1.37-5.3,0-3.47,1.25-6.21,3.75-8.21,2.5-2,5.72-3,9.67-3s7.4,1.06,10.2,3.18c2.79,2.12,4.4,4.98,4.81,8.57h-4.33c-.47-2.65-1.66-4.64-3.58-5.96-1.91-1.33-4.25-1.99-7.02-1.99s-5.12.6-6.89,1.81c-1.77,1.21-2.65,3.02-2.65,5.43,0,1.82.69,3.37,2.07,4.64,1.38,1.27,3.99,2.13,7.82,2.6l3.27.35c4.12.47,7.15,1.68,9.1,3.62,1.94,1.94,2.91,4.5,2.91,7.68,0,3.65-1.3,6.49-3.89,8.52-2.59,2.03-5.95,3.05-10.07,3.05s-7.83-1.09-10.77-3.27c-2.94-2.18-4.77-5.24-5.47-9.18h4.33c.47,2.89,1.87,5.05,4.19,6.49,2.32,1.44,5.05,2.16,8.17,2.16Z"/><path class="cls-1" d="M583.71,77.3v5.65h-5.39v-5.65h5.39ZM583.27,94.87v39.74h-4.42v-39.74h4.42Z"/><path class="cls-1" d="M622.22,134.88v-6.54c-1.18,1.71-2.62,3.15-4.33,4.33-2.71,1.88-5.89,2.83-9.54,2.83s-6.8-.94-9.45-2.83c-2.65-1.88-4.68-4.4-6.09-7.55-1.41-3.15-2.12-6.61-2.12-10.38s.71-7.14,2.12-10.29c1.41-3.15,3.44-5.68,6.09-7.59,2.65-1.91,5.8-2.87,9.45-2.87s6.83.94,9.54,2.83c1.82,1.36,3.36,2.97,4.59,4.86v-6.8h4.15v39.56c0,3.41-.72,6.48-2.16,9.18-1.44,2.71-3.5,4.86-6.18,6.45-2.68,1.59-5.93,2.38-9.76,2.38-4.48,0-8.1-1.06-10.86-3.18-2.77-2.12-4.45-4.86-5.03-8.21h4.41c.35,2.24,1.56,4.06,3.62,5.48,2.06,1.41,4.71,2.12,7.95,2.12,4.12,0,7.42-1.22,9.89-3.67,2.47-2.44,3.71-5.82,3.71-10.11ZM622.22,114.92v-.18c0-3.24-.55-6.14-1.63-8.7-1.09-2.56-2.65-4.58-4.68-6.05-2.03-1.47-4.49-2.21-7.37-2.21s-5.15.75-7.15,2.25c-2,1.5-3.52,3.52-4.55,6.05-1.03,2.53-1.54,5.42-1.54,8.65,0,4.94,1.16,9.01,3.49,12.19,2.32,3.18,5.58,4.77,9.76,4.77s7.73-1.59,10.11-4.77c2.38-3.18,3.58-7.18,3.58-12.01Z"/><path class="cls-1" d="M641.2,134.61h-4.42v-39.74h4.15v5.39c.47-.65,1-1.27,1.59-1.85,2.83-2.94,6.54-4.42,11.13-4.42s8.1,1.41,10.69,4.24c2.59,2.83,3.89,6.95,3.89,12.36v24.02h-4.42v-24.2c0-3.89-.93-6.96-2.78-9.23-1.85-2.26-4.52-3.4-7.99-3.4-3.77,0-6.68,1.19-8.74,3.58-2.06,2.38-3.09,5.4-3.09,9.05v24.2Z"/><path class="cls-1" d="M725.27,117.92l6.09-13.42h4.42l-6.54,14.57c-.77,1.77-1.62,3.39-2.56,4.86l11.13,10.69h-5.74l-7.77-7.42c-.35.41-.74.83-1.15,1.24-2.36,2.42-4.92,4.2-7.68,5.34-2.77,1.15-5.65,1.72-8.65,1.72-5.18,0-9.29-1.35-12.32-4.06-3.03-2.71-4.55-6.27-4.55-10.68,0-3.94,1.21-7.27,3.62-9.98,1.82-2,4.24-4,7.24-6.01l-1.5-1.41c-2.71-2.59-4.55-4.86-5.52-6.8-.97-1.94-1.46-4.06-1.46-6.36,0-2.71.57-5.09,1.72-7.15s2.78-3.68,4.9-4.86c2.12-1.18,4.62-1.77,7.51-1.77,4.36,0,7.76,1.25,10.2,3.75,2.44,2.5,3.67,5.64,3.67,9.4,0,3-.83,5.56-2.47,7.68-1.65,2.12-3.97,4.09-6.98,5.92l-3.53,2.12,16.34,15.72c.59-.94,1.12-1.97,1.59-3.09ZM721.38,124.37l-17.66-16.87c-2,1.3-3.59,2.5-4.77,3.62-1.65,1.47-2.81,2.96-3.49,4.46-.68,1.5-1.02,3.2-1.02,5.08,0,3.77,1.16,6.53,3.49,8.3,2.32,1.77,5.28,2.65,8.88,2.65,4,0,7.59-1.18,10.77-3.53,1.35-1,2.62-2.24,3.8-3.71ZM704.43,102.47l4.59-2.83c2.83-1.71,4.67-3.38,5.52-5.03.85-1.65,1.28-3.38,1.28-5.21,0-2.83-.81-5.05-2.43-6.67-1.62-1.62-3.93-2.43-6.93-2.43s-5.36.84-7.07,2.52c-1.71,1.68-2.56,3.99-2.56,6.93,0,1.88.41,3.65,1.24,5.3.82,1.65,2.24,3.44,4.24,5.39l2.12,2.03Z"/><path class="cls-1" d="M774.46,131.61c4.3,0,7.61-1.02,9.94-3.05,2.32-2.03,3.49-4.93,3.49-8.7,0-3.3-.94-5.95-2.83-7.95-1.88-2-5-3.38-9.36-4.15l-3.8-.71c-5.48-1-9.52-2.81-12.14-5.43-2.62-2.62-3.93-6.05-3.93-10.29,0-4.53,1.52-8.15,4.55-10.86,3.03-2.71,7.05-4.06,12.05-4.06s8.99,1.29,12.14,3.89c3.15,2.59,5.22,6.39,6.23,11.39h-4.5c-.88-3.89-2.5-6.76-4.86-8.61-2.36-1.85-5.36-2.78-9.01-2.78s-6.86.96-9.1,2.87c-2.24,1.91-3.36,4.61-3.36,8.08,0,3.24,1.05,5.78,3.14,7.64,2.09,1.85,5.37,3.19,9.85,4.02l3.8.71c5.36,1,9.24,2.89,11.66,5.65,2.41,2.77,3.62,6.24,3.62,10.42,0,4.89-1.58,8.74-4.72,11.57-3.15,2.83-7.43,4.24-12.85,4.24s-9.96-1.47-13.47-4.42c-3.5-2.94-5.67-7.06-6.49-12.36h4.5c.47,3.95,2.04,7.08,4.72,9.41,2.68,2.33,6.25,3.49,10.73,3.49Z"/><path class="cls-1" d="M830.62,106.53h-4.68c-.65-2.77-1.9-4.92-3.75-6.45-1.85-1.53-4.19-2.3-7.02-2.3s-5.31.74-7.29,2.21c-1.97,1.47-3.46,3.49-4.46,6.05-1,2.56-1.5,5.46-1.5,8.7s.5,6.05,1.5,8.61c1,2.56,2.49,4.59,4.46,6.09,1.97,1.5,4.4,2.25,7.29,2.25s5.17-.76,7.02-2.3c1.86-1.53,3.1-3.65,3.75-6.36h4.68c-.94,3.77-2.8,6.79-5.56,9.05-2.77,2.27-6.09,3.4-9.98,3.4-3.59,0-6.71-.93-9.36-2.78s-4.71-4.36-6.18-7.51c-1.47-3.15-2.21-6.64-2.21-10.46s.74-7.4,2.21-10.55c1.47-3.15,3.53-5.64,6.18-7.46,2.65-1.82,5.77-2.74,9.36-2.74,3.89,0,7.21,1.13,9.98,3.4,2.77,2.27,4.62,5.31,5.56,9.14Z"/><path class="cls-1" d="M867.1,135.5c-3.71,0-6.96-.93-9.76-2.78-2.8-1.85-4.96-4.36-6.49-7.51-1.53-3.15-2.3-6.67-2.3-10.55s.76-7.39,2.3-10.51c1.53-3.12,3.63-5.59,6.31-7.42,2.68-1.82,5.75-2.74,9.23-2.74s6.31.81,8.88,2.43c2.56,1.62,4.55,3.83,5.96,6.62,1.41,2.8,2.12,5.99,2.12,9.58,0,.77-.02,1.34-.04,1.72-.03.38-.08.81-.13,1.28h-30.29c.18,4.59,1.44,8.36,3.8,11.3,2.53,3.18,6.06,4.77,10.6,4.77,2.77,0,5.09-.6,6.98-1.81,1.88-1.21,3.24-2.9,4.06-5.08h4.33c-.77,3-2.56,5.53-5.39,7.6-2.83,2.06-6.21,3.09-10.15,3.09ZM853.05,111.83h26.05v-.18c0-4.18-1.19-7.54-3.58-10.07-2.38-2.53-5.43-3.8-9.14-3.8-4.12,0-7.39,1.53-9.8,4.59-2,2.53-3.18,5.68-3.53,9.45Z"/><path class="cls-1" d="M894.82,134.61h-4.42v-39.74h4.15v5.39c.47-.65,1-1.27,1.59-1.85,2.83-2.94,6.54-4.42,11.13-4.42s8.1,1.41,10.69,4.24c2.59,2.83,3.89,6.95,3.89,12.36v24.02h-4.42v-24.2c0-3.89-.93-6.96-2.78-9.23-1.85-2.26-4.52-3.4-7.99-3.4-3.77,0-6.68,1.19-8.74,3.58s-3.09,5.4-3.09,9.05v24.2Z"/><path class="cls-1" d="M961.85,106.53h-4.68c-.65-2.77-1.9-4.92-3.75-6.45-1.85-1.53-4.19-2.3-7.02-2.3s-5.31.74-7.29,2.21c-1.97,1.47-3.46,3.49-4.46,6.05-1,2.56-1.5,5.46-1.5,8.7s.5,6.05,1.5,8.61c1,2.56,2.49,4.59,4.46,6.09,1.97,1.5,4.4,2.25,7.29,2.25s5.17-.76,7.02-2.3c1.86-1.53,3.1-3.65,3.75-6.36h4.68c-.94,3.77-2.8,6.79-5.56,9.05-2.77,2.27-6.09,3.4-9.98,3.4-3.59,0-6.71-.93-9.36-2.78s-4.71-4.36-6.18-7.51c-1.47-3.15-2.21-6.64-2.21-10.46s.74-7.4,2.21-10.55c1.47-3.15,3.53-5.64,6.18-7.46,2.65-1.82,5.77-2.74,9.36-2.74,3.89,0,7.21,1.13,9.98,3.4,2.77,2.27,4.62,5.31,5.56,9.14Z"/><path class="cls-1" d="M983.75,135.5c-3.71,0-6.96-.93-9.76-2.78-2.8-1.85-4.96-4.36-6.49-7.51-1.53-3.15-2.3-6.67-2.3-10.55s.76-7.39,2.3-10.51c1.53-3.12,3.63-5.59,6.31-7.42,2.68-1.82,5.75-2.74,9.23-2.74s6.31.81,8.88,2.43c2.56,1.62,4.55,3.83,5.96,6.62,1.41,2.8,2.12,5.99,2.12,9.58,0,.77-.02,1.34-.04,1.72-.03.38-.08.81-.13,1.28h-30.29c.18,4.59,1.44,8.36,3.8,11.3,2.53,3.18,6.06,4.77,10.6,4.77,2.77,0,5.09-.6,6.98-1.81,1.88-1.21,3.24-2.9,4.06-5.08h4.33c-.77,3-2.56,5.53-5.39,7.6-2.83,2.06-6.21,3.09-10.15,3.09ZM969.71,111.83h26.05v-.18c0-4.18-1.19-7.54-3.58-10.07-2.38-2.53-5.43-3.8-9.14-3.8-4.12,0-7.39,1.53-9.8,4.59-2,2.53-3.18,5.68-3.53,9.45Z"/><path class="cls-1" d="M841.71,77.3v5.65h-5.39v-5.65h5.39ZM841.26,94.87v39.74h-4.42v-39.74h4.42Z"/><path class="cls-1" d="M33.48,101.13v-16.74H0v50.22h73.74l26.51-26.51v-13.75l-33.48-33.48v40.26h-33.28ZM73.74.88H0v40.26l33.48,33.48v-40.26h33.28v16.74h33.48v-23.72L73.74.88Z"/></svg>